<svg xmlns="http://www.w3.org/2000/svg" version="1.1" xmlns:xlink="http://www.w3.org/1999/xlink" xmlns:svgjs="http://svgjs.dev/svgjs" width="1000" height="1000" viewBox="0 0 1000 1000"><rect width="1000" height="1000" fill="#ffffff"></rect><g transform="matrix(0.7,0,0,0.7,149.57575757575756,282.1265587044535)"><svg viewBox="0 0 396 247" data-background-color="#ede7e7" preserveAspectRatio="xMidYMid meet" height="623" width="1000" xmlns="http://www.w3.org/2000/svg" xmlns:xlink="http://www.w3.org/1999/xlink"><g id="tight-bounds" transform="matrix(1,0,0,1,0.2400000000000091,-0.09999999999999432)"><svg viewBox="0 0 395.52 247.2" height="247.2" width="395.52"><g><svg></svg></g><g><svg viewBox="0 0 395.52 247.2" height="247.2" width="395.52"><g transform="matrix(1,0,0,1,75.54432,79.30227394839704)"><svg viewBox="0 0 244.43135999999998 88.5954521032059" height="88.5954521032059" width="244.43135999999998"><g><svg viewBox="0 0 244.43135999999998 88.5954521032059" height="88.5954521032059" width="244.43135999999998"><g><svg viewBox="0 0 244.43135999999998 88.5954521032059" height="88.5954521032059" width="244.43135999999998"><g><svg viewBox="0 0 244.43135999999998 88.5954521032059" height="88.5954521032059" width="244.43135999999998"><g><svg viewBox="0 0 244.43135999999998 64.97784394057857" height="64.97784394057857" width="244.43135999999998"><g transform="matrix(1,0,0,1,0,0)"><svg width="244.43135999999998" viewBox="3.5999999046325684 -33.75 127.89000701904297 34" height="64.97784394057857" data-palette-color="#d25754"><path d="M32.45-31.6Q33.15-31.6 34.18-30.68 35.2-29.75 35.2-29.1L35.2-29.1Q35.2-26.05 35-20.75L35-20.75Q34.95-19.45 34.9-17.63 34.85-15.8 34.85-13.4L34.85-13.4Q34.85-5.8 35.75-2.2L35.75-2.2Q35.7-1 34.8-0.48 33.9 0.05 33 0.05L33 0.05Q31 0.05 30.38-1.35 29.75-2.75 29.75-5.35L29.75-5.35Q29.75-15 29.95-23.1L29.95-23.1Q24.2-16.7 21-12.35L21-12.35Q21-12.35 20.1-11.75L20.1-11.75Q19.25-11 18.7-11L18.7-11Q17.4-11 16.55-11.65 15.7-12.3 14.9-13.55L14.9-13.55 12.5-16.95Q10-20.45 8.85-22.25L8.85-22.25Q8.85-17.65 9.3-9.75L9.3-9.75Q9.65-5.2 9.65-2.9L9.65-2.9Q9.65-1.7 9.05-0.88 8.45-0.05 7.15-0.05L7.15-0.05Q5.85-0.05 5.03-0.55 4.2-1.05 4.15-2.05L4.15-2.05Q4.2-2.9 4.2-4.85L4.2-4.85Q4.2-8.75 3.95-14.35L3.95-14.35 3.85-17.05 3.75-20.55Q3.7-22.1 3.65-24.18 3.6-26.25 3.6-28.7L3.6-28.7Q3.6-31.7 6.85-31.7L6.85-31.7Q7.85-31.7 8.88-31.2 9.9-30.7 10.4-29.75L10.4-29.75Q10.8-28 13.35-23.95 15.9-19.9 18.35-16.35L18.35-16.35Q20.55-19.15 21.95-20.55L21.95-20.55Q24.35-23 25.93-25.1 27.5-27.2 29.35-30.15L29.35-30.15Q29.8-30.75 30.65-31.18 31.5-31.6 32.45-31.6L32.45-31.6ZM44.5-32.1Q46.25-31.95 47.55-31.18 48.85-30.4 48.85-28.85L48.85-28.85Q48.85-27.7 47.77-27.03 46.7-26.35 45.2-26.35L45.2-26.35Q43.75-26.35 43.2-27.1 42.65-27.85 42.65-28.65L42.65-28.65Q42.65-30.15 42.97-31.15 43.3-32.15 44.5-32.1L44.5-32.1ZM48.5-18.95L48.5-9.95 48.5-8.5Q48.5-6.55 48.62-4.83 48.75-3.1 48.95-1.35L48.95-1.35Q48.9-0.85 48.2-0.33 47.5 0.2 46.95 0.2L46.95 0.2Q46 0.2 45.02-0.18 44.05-0.55 43.85-1.1L43.85-1.1Q43.55-2.7 43.55-3.95L43.55-3.95Q43.55-8.05 43.3-13.15L43.3-13.15Q43.1-17.65 43.1-19.45L43.1-19.45Q43.1-20.35 44-21 44.9-21.65 45.9-21.65L45.9-21.65Q47.35-21.65 47.92-21 48.5-20.35 48.5-18.95L48.5-18.95ZM77.85-11.9Q78.15-13 78.5-14.9L78.5-14.9Q79-17.15 79.3-18.3 79.6-19.45 80.1-20.25L80.1-20.25Q80.65-21.15 81.07-21.45 81.5-21.75 82-21.75L82-21.75Q84.6-21.75 84.6-19.75L84.6-19.75Q84.6-18.75 83.8-16L83.8-16Q81.15-8 80-3.6L80-3.6Q79.5-1.75 78.5-0.78 77.5 0.2 75.8 0.2L75.8 0.2Q74.95 0.2 74.07-0.63 73.2-1.45 72.65-2.65L72.65-2.65 72.1-4Q70.7-7.55 70.02-9.47 69.35-11.4 69.15-12.95L69.15-12.95 68.7-11.35Q67.5-7.05 66.2-3.35L66.2-3.35Q65.55-1.45 64.6-0.63 63.65 0.2 62.15 0.2L62.15 0.2Q61.25 0.2 60.57-0.2 59.9-0.6 59.3-1.55L59.3-1.55Q58.5-2.85 57.77-5.05 57.05-7.25 55.7-11.9L55.7-11.9Q55.05-13.9 54.5-16.13 53.95-18.35 53.95-19.25L53.95-19.25Q53.95-20.3 54.5-20.9 55.05-21.5 56.1-21.5L56.1-21.5Q57.45-21.5 58-20.98 58.55-20.45 59-19.4L59-19.4Q59.25-17.6 60.1-14.3L60.1-14.3 61.2-9.6Q61.3-9.05 61.8-7.3L61.8-7.3 62.2-5.85Q63.3-8.2 64.05-10.35 64.8-12.5 65.7-15.65L65.7-15.65Q65.75-15.85 66.7-19.1L66.7-19.1Q67.35-20.15 67.85-20.68 68.35-21.2 68.85-21.2L68.85-21.2Q69.85-21.2 70.57-20.58 71.3-19.95 71.65-19.05L71.65-19.05Q72.25-17.1 72.7-15.5L72.7-15.5Q72.9-14.85 73.62-12.38 74.35-9.9 74.95-8.2 75.55-6.5 75.95-5.8L75.95-5.8 77.85-11.9ZM91.19-17.1L88.79-17.3Q88.09-17.4 87.67-17.9 87.24-18.4 87.24-19.1L87.24-19.1Q87.24-19.45 87.42-19.85 87.59-20.25 87.94-20.55L87.94-20.55Q88.59-21.2 91.44-21.2L91.44-21.2Q91.84-23.15 91.84-25.15L91.84-25.15Q91.84-25.9 91.79-26.45 91.74-27 91.74-27.3L91.74-27.3Q91.74-28.4 92.57-28.95 93.39-29.5 94.44-29.5L94.44-29.5Q95.74-29.5 96.22-28.85 96.69-28.2 96.69-26.45L96.69-26.45Q96.69-23.85 96.24-21.35L96.24-21.35Q97.04-21.35 98.44-21.45L98.44-21.45Q100.34-21.55 101.19-21.55L101.19-21.55Q102.04-21.55 102.67-21.13 103.29-20.7 103.29-19.95L103.29-19.95Q103.29-18 101.54-17.65L101.54-17.65Q99.69-17.2 95.79-17.1L95.79-17.1Q95.64-15.15 95.64-12.85L95.64-12.85Q95.64-9.25 96.09-6.95L96.09-6.95Q96.39-5.35 97.12-4.63 97.84-3.9 99.29-3.9L99.29-3.9Q100.14-3.9 101.04-4.35L101.04-4.35Q101.64-4.7 102.14-4.7L102.14-4.7Q102.84-4.7 103.17-4.25 103.49-3.8 103.49-3.05L103.49-3.05Q103.49-1.65 101.99-0.73 100.49 0.2 98.14 0.2L98.14 0.2Q96.69 0.2 95.22-0.5 93.74-1.2 92.74-2.25L92.74-2.25Q92.59-2.4 92.19-3.4 91.79-4.4 91.49-5.55L91.49-5.55Q90.99-7.9 90.99-12.15L90.99-12.15Q90.99-14 91.19-17.1L91.19-17.1ZM113.64-31.7Q113.64-30.4 113.59-28.68 113.54-26.95 113.49-26.05L113.49-26.05Q113.34-23.5 113.34-20.95L113.34-20.95Q113.34-19.05 113.49-17L113.49-17Q115.04-19.25 116.84-20.3 118.64-21.35 121.19-21.35L121.19-21.35Q123.04-21.35 124.64-19.7 126.24-18.05 126.69-15.85L126.69-15.85Q126.84-13.9 126.84-11.1L126.84-11.1Q126.84-9.3 127.04-6.4L127.04-6.4Q127.14-5.3 127.62-4.35 128.09-3.4 128.99-3.4L128.99-3.4Q129.44-3.4 129.72-3.45 129.99-3.5 130.24-3.5L130.24-3.5Q130.94-3.5 131.22-3.15 131.49-2.8 131.49-2.15L131.49-2.15Q131.49-0.95 130.29-0.35 129.09 0.25 128.09 0.25L128.09 0.25Q124.49 0.25 123.14-2.75L123.14-2.75Q122.39-4.45 122.19-7.18 121.99-9.9 121.99-13.55L121.99-13.55Q121.99-17.15 119.54-17.15L119.54-17.15Q118.19-17.15 116.82-15.73 115.44-14.3 114.54-11.98 113.64-9.65 113.64-7.15L113.64-7.15 113.69-1.95Q113.69-0.85 112.84-0.33 111.99 0.2 111.24 0.2L111.24 0.2Q110.14 0.2 109.24-0.48 108.34-1.15 108.34-2L108.34-2Q108.69-5.75 108.69-14.55L108.69-14.55Q108.69-16.15 108.44-26.4L108.44-26.4 108.29-31Q108.29-32.1 109.29-32.93 110.29-33.75 111.54-33.75L111.54-33.75Q112.64-33.75 113.14-33.25 113.64-32.75 113.64-31.7L113.64-31.7Z" opacity="1" transform="matrix(1,0,0,1,0,0)" fill="#000000" class="undefined-text-0" data-fill-palette-color="primary" id="text-0"></path></svg></g></svg></g><g transform="matrix(1,0,0,1,0,80.31755342669459)"><svg viewBox="0 0 143.50565145599998 8.277898676511304" height="8.277898676511304" width="143.50565145599998"><g transform="matrix(1,0,0,1,0,0)"><svg width="143.50565145599998" viewBox="2.5 -37.5 866.7000122070312 50" height="8.277898676511304" data-palette-color="#5a0a1a"><path d="M5.55-32.25L2.5-32.25 2.5-35 23.75-35 23.7-34.7 24.35-27.8 21.85-27.4 21.25-32.25 8.95-32.25 8.95-18.85 19.85-18.85 19.85-22 22.6-22 22.6-13.4 19.85-13.4 19.85-16.1 8.95-16.1 8.95-2.75 22.6-2.75 23.35-9 25.8-8.75 25.05 0 2.5 0 2.5-2.75 5.55-2.75 5.55-32.25ZM47.9-22.5L45.1-22.5 45.1-25 54.3-25 54.3-22.5 51.35-22.5 42.3 0 39.3 0 30.95-22.5 27.55-22.5 27.55-25 38.1-25 38.1-22.5 34.6-22.5 40.95-3.85 47.9-22.5ZM58.39-11.2L58.39-11.2Q58.39-6.75 60.95-4.73 63.49-2.7 66.89-2.7L66.89-2.7Q69.09-2.7 71.42-3.13 73.75-3.55 74.5-3.9L74.5-3.9 75.14-1.55Q74-0.8 71.37-0.3 68.75 0.2 66.57 0.2 64.39 0.2 62.67-0.25 60.95-0.7 59.14-1.85 57.34-3 56.29-5.45 55.24-7.9 55.24-11.45L55.24-11.45Q55.24-18.05 58.64-21.55L58.64-21.55Q62.2-25.2 66.89-25.2 71.59-25.2 74.07-22.6 76.55-20 76.55-15.3L76.55-15.3Q76.55-14.3 76.39-13.15L76.39-13.15 58.55-13.15Q58.39-12.1 58.39-11.2ZM73.55-15.65L73.55-15.65Q73.55-18.75 71.69-20.43 69.84-22.1 67.39-22.1L67.39-22.1Q64.05-22.1 61.84-20.08 59.64-18.05 58.89-15.1L58.89-15.1 73.55-15.1Q73.55-15.4 73.55-15.65ZM86.34-16.75L86.34-2.5 90.49-2.5 90.49 0 79.99 0 79.99-2.5 83.09-2.5 83.09-22.5 79.74-22.5 79.74-25 86.34-25 86.34-18.95Q90.29-24.75 94.09-24.85L94.09-24.85Q94.39-24.85 94.69-24.85L94.69-24.85 97.49-24.5 96.19-21.5Q95.24-21.95 93.74-21.95L93.74-21.95Q90.14-21.9 86.34-16.75L86.34-16.75ZM122.29-22.5L119.54-22.5 119.54-25 128.74-25 128.74-22.5 125.74-22.5 115.79 0 114.14 9.95 118.34 9.95 118.34 12.45 107.79 12.45 107.79 9.95 110.89 9.95 112.44 0 111.59 0 103.49-22.5 100.09-22.5 100.09-25 110.64-25 110.64-22.5 107.19-22.5 113.79-2.35 122.29-22.5ZM142.64-2.45L142.64-2.45 144.59-2.55 144.74-0.55Q144.69-0.55 144.04-0.4L144.04-0.4Q142.54-0.05 140.69-0.05L140.69-0.05Q138.99-0.15 137.59-0.63 136.19-1.1 134.99-2.63 133.79-4.15 133.79-6.55L133.79-6.55 133.79-22.1 131.24-22.1 131.64-24.5 133.84-24.95 134.24-29.75 137.04-30 137.04-25 143.09-25 143.09-22.1 137.04-22.1 137.04-7.4Q137.04-2.45 142.64-2.45ZM173.69 0L163.59 0 163.59-2.5 166.64-2.5 166.64-17.1Q166.64-18.85 165.91-19.95 165.19-21.05 164.04-21.4L164.04-21.4Q162.14-22.05 160.94-21.95L160.94-21.95Q157.69-21.85 153.79-19.65L153.79-19.65 153.79-2.5 157.59-2.5 157.59 0 147.49 0 147.49-2.5 150.54-2.5 150.54-35 147.19-35 147.19-37.5 153.79-37.5 153.79-21.9Q160.34-26.4 165.64-24.7L165.64-24.7Q166.84-24.35 167.71-23.68 168.59-23 169.24-21.65 169.89-20.3 169.89-18.4L169.89-18.4 169.89-2.5 173.69-2.5 173.69 0ZM179.43-22.5L176.08-22.5 176.08-25 182.68-25 182.68-2.5 186.43-2.5 186.43 0 176.33 0 176.33-2.5 179.43-2.5 179.43-22.5ZM180.98-31.7Q179.98-31.7 179.43-32.33 178.88-32.95 178.88-33.98 178.88-35 179.46-35.63 180.03-36.25 181.03-36.25 182.03-36.25 182.66-35.63 183.28-35 183.28-33.93 183.28-32.85 182.63-32.27 181.98-31.7 180.98-31.7ZM191.68-22.5L188.33-22.5 188.33-25 194.93-25 194.93-22.2Q199.03-25 202.78-25.15L202.78-25.15Q206.43-25.15 208.33-23.7L208.33-23.7Q209.18-23.05 209.86-21.68 210.53-20.3 210.53-18.4L210.53-18.4 210.53-2.5 214.38-2.5 214.38 0 204.28 0 204.28-2.5 207.28-2.5 207.28-17.15Q207.28-22 201.58-22L201.58-22Q198.48-21.9 194.93-19.95L194.93-19.95 194.93-2.5 198.68-2.5 198.68 0 188.58 0 188.58-2.5 191.68-2.5 191.68-22.5ZM215.68 5.2L215.68 5.2Q215.68 0.7 221.03-2.7L221.03-2.7Q218.93-4.2 218.93-6.28 218.93-8.35 220.73-9.65L220.73-9.65Q217.03-11.45 217.03-16.95L217.03-16.95Q217.03-20.8 219.93-23 222.83-25.2 227.33-25.2L227.33-25.2Q228.78-25.2 230.28-24.95L230.28-24.95 239.68-25.2 239.58-23.3 234.13-23.3Q236.88-21.25 236.88-17.15 236.88-13.05 234.13-10.8 231.38-8.55 227.03-8.55L227.03-8.55Q224.23-8.55 222.38-9.05L222.38-9.05Q221.43-8.15 221.43-6.75 221.43-5.35 223.15-4.58 224.88-3.8 227.6-3.43 230.33-3.05 231.58-2.78 232.83-2.5 234.48-1.9 236.13-1.3 237.13-0.5L237.13-0.5Q239.48 1.45 239.48 4.7L239.48 4.7Q239.48 6.95 238.43 8.55 237.38 10.15 235.53 11L235.53 11Q232.13 12.5 227.43 12.5L227.43 12.5Q221.18 12.5 218.43 10.35 215.68 8.2 215.68 5.2ZM218.93 4.85L218.93 4.85Q218.93 6.9 220.93 8.25 222.93 9.6 227.03 9.6L227.03 9.6Q236.23 9.6 236.23 4.7L236.23 4.7Q236.23 2.25 234.03 1.2L234.03 1.2Q232.13 0.25 229.83-0.2L229.83-0.2Q224.93-0.9 222.78-1.75L222.78-1.75Q218.93 1.4 218.93 4.85ZM227.18-22.55Q224.08-22.55 222.18-21.13 220.28-19.7 220.28-16.88 220.28-14.05 221.75-12.63 223.23-11.2 226.48-11.2 229.73-11.2 231.6-12.83 233.48-14.45 233.48-17.25L233.48-17.25Q233.48-22.55 227.18-22.55L227.18-22.55ZM268.52-2.95L268.52-2.95Q274.07-2.95 276.77-5.75L276.77-5.75Q278.32-7.35 278.32-9.55 278.32-11.75 277.25-13.18 276.17-14.6 274.47-15.38 272.77-16.15 270.7-16.73 268.62-17.3 266.55-17.95 264.47-18.6 262.77-19.5 261.07-20.4 260-22.05 258.92-23.7 258.92-26L258.92-26Q258.92-30 261.92-32.55 264.92-35.1 269.87-35.1 274.82-35.1 279.17-34.1L279.17-34.1 279.17-34.05 279.32-34.05 279.87-27.8 277.42-27.4 276.87-31.6Q274.07-32.1 270.7-32.1 267.32-32.1 264.82-30.63 262.32-29.15 262.32-26.45 262.32-23.75 264.32-22.35 266.32-20.95 269.17-20.23 272.02-19.5 274.87-18.6 277.72-17.7 279.72-15.5 281.72-13.3 281.72-9.7L281.72-9.7Q281.72-4.85 278.12-2.4 274.52 0.05 269.17 0.05L269.17 0.05Q262.42 0.05 257.87-3L257.87-3 257.92-8.3 260.37-8.55 260.47-4.75Q264.27-2.95 268.52-2.95ZM311.67 0L301.57 0 301.57-2.5 304.62-2.5 304.62-17.1Q304.62-18.85 303.9-19.95 303.17-21.05 302.02-21.4L302.02-21.4Q300.12-22.05 298.92-21.95L298.92-21.95Q295.67-21.85 291.77-19.65L291.77-19.65 291.77-2.5 295.57-2.5 295.57 0 285.47 0 285.47-2.5 288.52-2.5 288.52-35 285.17-35 285.17-37.5 291.77-37.5 291.77-21.9Q298.32-26.4 303.62-24.7L303.62-24.7Q304.82-24.35 305.7-23.68 306.57-23 307.22-21.65 307.87-20.3 307.87-18.4L307.87-18.4 307.87-2.5 311.67-2.5 311.67 0ZM324.74 0.2Q319.52 0.2 316.29-2.8 313.07-5.8 313.07-11.98 313.07-18.15 316.49-21.68 319.92-25.2 325.12-25.2 330.32-25.2 333.57-22.2 336.82-19.2 336.82-13.03 336.82-6.85 333.39-3.33 329.97 0.2 324.74 0.2ZM325.04-22.3Q321.32-22.3 318.82-19.6 316.32-16.9 316.32-12.28 316.32-7.65 318.69-5.18 321.07-2.7 324.82-2.7 328.57-2.7 331.07-5.38 333.57-8.05 333.57-12.68 333.57-17.3 331.17-19.8 328.77-22.3 325.04-22.3ZM360.27 0L359.77-2.9Q355.22 0.15 351.17 0.15L351.17 0.15Q349.47 0.15 347.17-0.7L347.17-0.7Q345.67-1.25 344.77-2.78 343.87-4.3 343.87-6.6L343.87-6.6 343.87-22.5 340.37-22.5 340.37-25 347.12-25 347.12-7.6Q347.12-5.85 347.87-4.73 348.62-3.6 349.77-3.25L349.77-3.25Q351.67-2.65 352.82-2.75L352.82-2.75Q355.82-2.8 359.77-4.9L359.77-4.9 359.77-22.5 356.27-22.5 356.27-25 363.02-25 363.02-2.5 366.87-2.5 366.87 0 360.27 0ZM373.06-35L369.71-35 369.71-37.5 376.31-37.5 376.31-2.5 380.06-2.5 380.06 0 369.96 0 369.96-2.5 373.06-2.5 373.06-35ZM385.71-1.85L385.71-1.85Q383.96-3 382.89-5.48 381.81-7.95 381.81-11.5L381.81-11.5Q381.81-18.05 385.16-21.5L385.16-21.5Q388.71-25.2 393.26-25.2L393.26-25.2Q396.06-25.2 398.96-23.75L398.96-23.75 398.96-35 395.61-35 395.61-37.5 402.21-37.5 402.21-2.5 406.06-2.5 406.06 0 399.46 0 399.06-1.6Q396.21 0.2 392.51 0.2 388.81 0.2 385.71-1.85ZM398.96-4.05L398.96-4.05 398.96-21.6Q396.66-22.3 394.61-22.3L394.61-22.3Q390.31-22.3 387.69-19.48 385.06-16.65 385.06-11.55L385.06-11.55Q385.06-8.85 385.84-6.98 386.61-5.1 387.91-4.2L387.91-4.2Q390.16-2.7 393.16-2.7 396.16-2.7 398.96-4.05ZM429.21-32.25L425.96-32.25 425.96-35 436.71-35Q447.51-35 447.51-26.55L447.51-26.55Q447.51-23 444.81-18.9L444.81-18.9Q449.56-16.95 449.56-10.35L449.56-10.35Q449.56-4.45 446.58-2.23 443.61 0 437.46 0L437.46 0 425.96 0 425.96-2.75 429.21-2.75 429.21-32.25ZM438.46-17.15L438.46-17.15 432.61-17.15 432.61-2.75 437.21-2.75Q439.51-2.75 440.96-3 442.41-3.25 443.71-4L443.71-4Q446.16-5.35 446.16-10.15L446.16-10.15Q446.16-13.95 444.23-15.55 442.31-17.15 438.46-17.15ZM432.61-19.9L438.71-19.9Q440.56-19.9 441.91-19.7L441.91-19.7Q444.11-23.15 444.11-26.25L444.11-26.25Q444.11-32.25 436.46-32.25L436.46-32.25 432.61-32.25 432.61-19.9ZM454.95-11.2L454.95-11.2Q454.95-6.75 457.5-4.73 460.05-2.7 463.45-2.7L463.45-2.7Q465.65-2.7 467.98-3.13 470.3-3.55 471.05-3.9L471.05-3.9 471.7-1.55Q470.55-0.8 467.93-0.3 465.3 0.2 463.13 0.2 460.95 0.2 459.23-0.25 457.5-0.7 455.7-1.85 453.9-3 452.85-5.45 451.8-7.9 451.8-11.45L451.8-11.45Q451.8-18.05 455.2-21.55L455.2-21.55Q458.75-25.2 463.45-25.2 468.15-25.2 470.63-22.6 473.1-20 473.1-15.3L473.1-15.3Q473.1-14.3 472.95-13.15L472.95-13.15 455.1-13.15Q454.95-12.1 454.95-11.2ZM470.1-15.65L470.1-15.65Q470.1-18.75 468.25-20.43 466.4-22.1 463.95-22.1L463.95-22.1Q460.6-22.1 458.4-20.08 456.2-18.05 455.45-15.1L455.45-15.1 470.1-15.1Q470.1-15.4 470.1-15.65ZM524.3 0L514.2 0 514.2-2.75 517.25-2.75 514.95-9.25 499.55-9.25 497.3-2.75 500.9-2.75 500.9 0 490.8 0 490.8-2.75 494.1-2.75 505.75-35 508.8-35 520.85-2.75 524.3-2.75 524.3 0ZM514.05-11.75L507.1-31.2 500.4-11.75 514.05-11.75ZM528.14-8.05L528.39-3.25Q530.5-2.6 531.77-2.6 533.04-2.6 533.45-2.65L533.45-2.65Q536.04-2.7 537.79-3.75 539.54-4.8 539.54-6.7 539.54-8.6 538.17-9.65 536.79-10.7 534.85-11.25 532.89-11.8 530.95-12.45 529-13.1 527.62-14.5 526.25-15.9 526.25-18.15L526.25-18.15Q526.25-21.35 528.7-23.28 531.14-25.2 534.89-25.2L534.89-25.2Q537.7-25.2 540.54-24.2L540.54-24.2 541.45-23.85 541.45-18.1 539-17.75 538.79-22Q536.79-22.3 535.45-22.3L535.45-22.3Q532.7-22.3 531.1-21.23 529.5-20.15 529.5-18.48 529.5-16.8 530.87-15.85 532.25-14.9 534.2-14.35 536.14-13.8 538.1-13.13 540.04-12.45 541.42-10.93 542.79-9.4 542.79-6.95L542.79-6.95Q542.79-3.65 540.32-1.73 537.85 0.2 533.29 0.2 528.75 0.2 525.75-1.95L525.75-1.95 525.75-7.7 528.14-8.05ZM571.64-2.95L571.64-2.95Q577.19-2.95 579.89-5.75L579.89-5.75Q581.44-7.35 581.44-9.55 581.44-11.75 580.36-13.18 579.29-14.6 577.59-15.38 575.89-16.15 573.81-16.73 571.74-17.3 569.66-17.95 567.59-18.6 565.89-19.5 564.19-20.4 563.11-22.05 562.04-23.7 562.04-26L562.04-26Q562.04-30 565.04-32.55 568.04-35.1 572.99-35.1 577.94-35.1 582.29-34.1L582.29-34.1 582.29-34.05 582.44-34.05 582.99-27.8 580.54-27.4 579.99-31.6Q577.19-32.1 573.81-32.1 570.44-32.1 567.94-30.63 565.44-29.15 565.44-26.45 565.44-23.75 567.44-22.35 569.44-20.95 572.29-20.23 575.14-19.5 577.99-18.6 580.84-17.7 582.84-15.5 584.84-13.3 584.84-9.7L584.84-9.7Q584.84-4.85 581.24-2.4 577.64 0.05 572.29 0.05L572.29 0.05Q565.54 0.05 560.99-3L560.99-3 561.04-8.3 563.49-8.55 563.59-4.75Q567.39-2.95 571.64-2.95ZM591.64-22.5L588.29-22.5 588.29-25 594.89-25 594.89-2.5 598.64-2.5 598.64 0 588.54 0 588.54-2.5 591.64-2.5 591.64-22.5ZM593.19-31.7Q592.19-31.7 591.64-32.33 591.09-32.95 591.09-33.98 591.09-35 591.66-35.63 592.24-36.25 593.24-36.25 594.24-36.25 594.86-35.63 595.49-35 595.49-33.93 595.49-32.85 594.84-32.27 594.19-31.7 593.19-31.7ZM625.88 0L615.78 0 615.78-2.5 618.88-2.5 618.88-17.2Q618.88-22.05 613.48-22.05L613.48-22.05Q610.63-22 607.08-20.15L607.08-20.15 607.08-2.5 610.88-2.5 610.88 0 600.78 0 600.78-2.5 603.83-2.5 603.83-22.5 600.53-22.5 600.53-25 607.13-25 607.13-22.5 607.08-22.5 607.08-22.35Q611.23-24.95 614.68-25.15L614.68-25.15Q619.43-25.15 621.13-22.45L621.13-22.45Q625.48-24.95 629.33-25.15L629.33-25.15Q632.83-25.15 634.63-23.7L634.63-23.7Q635.48-23.05 636.11-21.68 636.73-20.3 636.73-18.4L636.73-18.4 636.73-2.5 640.43-2.5 640.43 0 630.33 0 630.33-2.5 633.48-2.5 633.48-17.15Q633.48-22.05 628.13-22.05L628.13-22.05Q625.23-22 621.98-20.25L621.98-20.25Q622.13-19.4 622.13-18.4L622.13-18.4 622.13-2.5 625.88-2.5 625.88 0ZM647.33-22.5L643.98-22.5 643.98-25 650.58-25 650.58-23.15Q653.73-25.45 657.28-25.45L657.28-25.45Q660.68-25.45 663.68-23.35L663.68-23.35Q665.28-22.2 666.26-19.75 667.23-17.3 667.23-13.8L667.23-13.8Q667.23-7.15 663.93-3.8L663.93-3.8Q660.18 0 654.23 0L654.23 0Q652.48 0 650.58-0.25L650.58-0.25 650.58 10 654.83 10 654.83 12.5 644.23 12.5 644.23 10 647.33 10 647.33-22.5ZM650.58-21.1L650.58-21.1 650.58-2.8Q652.03-2.45 653.73-2.45L653.73-2.45Q658.68-2.45 661.33-5.35 663.98-8.25 663.98-13.55L663.98-13.55Q663.98-19.7 660.38-21.6L660.38-21.6Q658.63-22.55 656.33-22.55 654.03-22.55 650.58-21.1ZM674.33-35L670.98-35 670.98-37.5 677.58-37.5 677.58-2.5 681.33-2.5 681.33 0 671.23 0 671.23-2.5 674.33-2.5 674.33-35ZM686.23-11.2L686.23-11.2Q686.23-6.75 688.78-4.73 691.33-2.7 694.73-2.7L694.73-2.7Q696.93-2.7 699.25-3.13 701.58-3.55 702.33-3.9L702.33-3.9 702.98-1.55Q701.83-0.8 699.2-0.3 696.58 0.2 694.4 0.2 692.23 0.2 690.5-0.25 688.78-0.7 686.98-1.85 685.18-3 684.13-5.45 683.08-7.9 683.08-11.45L683.08-11.45Q683.08-18.05 686.48-21.55L686.48-21.55Q690.03-25.2 694.73-25.2 699.43-25.2 701.9-22.6 704.38-20 704.38-15.3L704.38-15.3Q704.38-14.3 704.23-13.15L704.23-13.15 686.38-13.15Q686.23-12.1 686.23-11.2ZM701.38-15.65L701.38-15.65Q701.38-18.75 699.53-20.43 697.68-22.1 695.23-22.1L695.23-22.1Q691.88-22.1 689.68-20.08 687.48-18.05 686.73-15.1L686.73-15.1 701.38-15.1Q701.38-15.4 701.38-15.65ZM755.57 0L745.47 0 745.47-2.75 748.52-2.75 746.22-9.25 730.82-9.25 728.57-2.75 732.17-2.75 732.17 0 722.07 0 722.07-2.75 725.37-2.75 737.02-35 740.07-35 752.12-2.75 755.57-2.75 755.57 0ZM745.32-11.75L738.37-31.2 731.67-11.75 745.32-11.75ZM759.42-8.05L759.67-3.25Q761.77-2.6 763.04-2.6 764.32-2.6 764.72-2.65L764.72-2.65Q767.32-2.7 769.07-3.75 770.82-4.8 770.82-6.7 770.82-8.6 769.44-9.65 768.07-10.7 766.12-11.25 764.17-11.8 762.22-12.45 760.27-13.1 758.89-14.5 757.52-15.9 757.52-18.15L757.52-18.15Q757.52-21.35 759.97-23.28 762.42-25.2 766.17-25.2L766.17-25.2Q768.97-25.2 771.82-24.2L771.82-24.2 772.72-23.85 772.72-18.1 770.27-17.75 770.07-22Q768.07-22.3 766.72-22.3L766.72-22.3Q763.97-22.3 762.37-21.23 760.77-20.15 760.77-18.48 760.77-16.8 762.14-15.85 763.52-14.9 765.47-14.35 767.42-13.8 769.37-13.13 771.32-12.45 772.69-10.93 774.07-9.4 774.07-6.95L774.07-6.95Q774.07-3.65 771.59-1.73 769.12 0.2 764.57 0.2 760.02 0.2 757.02-1.95L757.02-1.95 757.02-7.7 759.42-8.05ZM796.81-32.25L793.51-32.25 793.51-35 803.61-35 803.61-32.25 800.21-32.25 800.21-2.75 803.61-2.75 803.61 0 793.51 0 793.51-2.75 796.81-2.75 796.81-32.25ZM816.51-2.45L816.51-2.45 818.46-2.55 818.61-0.55Q818.56-0.55 817.91-0.4L817.91-0.4Q816.41-0.05 814.56-0.05L814.56-0.05Q812.86-0.15 811.46-0.63 810.06-1.1 808.86-2.63 807.66-4.15 807.66-6.55L807.66-6.55 807.66-22.1 805.11-22.1 805.51-24.5 807.71-24.95 808.11-29.75 810.91-30 810.91-25 816.96-25 816.96-22.1 810.91-22.1 810.91-7.4Q810.91-2.45 816.51-2.45ZM841.36-32.25L838.06-32.25 838.06-35 848.16-35 848.16-32.25 844.76-32.25 844.76-2.75 848.16-2.75 848.16 0 838.06 0 838.06-2.75 841.36-2.75 841.36-32.25ZM854.55-8.05L854.8-3.25Q856.9-2.6 858.18-2.6 859.45-2.6 859.85-2.65L859.85-2.65Q862.45-2.7 864.2-3.75 865.95-4.8 865.95-6.7 865.95-8.6 864.58-9.65 863.2-10.7 861.25-11.25 859.3-11.8 857.35-12.45 855.4-13.1 854.03-14.5 852.65-15.9 852.65-18.15L852.65-18.15Q852.65-21.35 855.1-23.28 857.55-25.2 861.3-25.2L861.3-25.2Q864.1-25.2 866.95-24.2L866.95-24.2 867.85-23.85 867.85-18.1 865.4-17.75 865.2-22Q863.2-22.3 861.85-22.3L861.85-22.3Q859.1-22.3 857.5-21.23 855.9-20.15 855.9-18.48 855.9-16.8 857.28-15.85 858.65-14.9 860.6-14.35 862.55-13.8 864.5-13.13 866.45-12.45 867.83-10.93 869.2-9.4 869.2-6.95L869.2-6.95Q869.2-3.65 866.73-1.73 864.25 0.2 859.7 0.2 855.15 0.2 852.15-1.95L852.15-1.95 852.15-7.7 854.55-8.05Z" opacity="1" transform="matrix(1,0,0,1,0,0)" fill="#000000" class="undefined-text-1" data-fill-palette-color="secondary" id="text-1"></path></svg></g></svg></g></svg></g></svg></g></svg></g></svg></g><path d="M221.413 73.302L221.413 15.477 5.168 15.477 5.168 231.723 221.413 231.723 221.413 173.898 215.553 173.898 215.553 225.863 11.028 225.863 11.028 21.337 215.553 21.337 215.553 73.302Z" fill="#000000" stroke="transparent" data-fill-palette-color="primary"></path></svg></g><defs></defs></svg><rect width="395.52" height="247.2" fill="none" stroke="none" visibility="hidden"></rect></g></svg></g></svg>